.
 
http://www.scenetime.com    -  Hottest private tracker on the net. !!!

Sign up will close shortly !!  Join now 

        Seed back for speed


...................................NFO:................................................. 888888ba   88888888b dP     dP  88888888b dP         .d888888  d888888P oo  .88888.  888888ba  
 88    `8b  88        88     88  88        88        d8'    88     88       d8'   `8b 88    `8b 
a88aaaa8P' a88aaaa    88    .8P a88aaaa    88        88aaaaa88a    88    dP 88     88 88     88 
 88   `8b.  88        88    d8'  88        88        88     88     88    88 88     88 88     88 
 88     88  88        88  .d8P   88        88        88     88     88    88 Y8.   .8P 88     88 
 dP     dP  88888888P 888888'    88888888P 88888888P 88     88     dP    dP  `8888P'  dP     dP 
                                                                                                
************************************BRINGS TO YOU*********************************************  



Conan The Barbarian 2011 TS XViD - REVELATiON



IMDb URL..........:http://www.imdb.com/title/tt0816462/
IMDB Rating.......:5.7/10                                                                 
Runtime...........:1h 43mn
Subtitles.........:NIL
Language..........:ENGLISH
Resolution........:720 x 304                                      

[color=RED]VIDEO:[/color]
Russian PROPER .... thank you

[color=RED]AUDIO:[/color]
thank you


[color=yellow]VIDEO:[/color]
ID                               : 0
Format                           : MPEG-4 Visual
Format profile                   : Advanced Simple@L5
Format settings, BVOP            : 2
Format settings, QPel            : No
Format settings, GMC             : No warppoints
Format settings, Matrix          : Default (H.263)
Muxing mode                      : Packed bitstream
Codec ID                         : XVID
Codec ID/Hint                    : XviD
Duration                         : 1h 43mn
Bit rate                         : 1 766 Kbps
Width                            : 720 pixels
Height                           : 304 pixels
Display aspect ratio             : 2.35:1
Frame rate                       : 25.000 fps
Color space                      : YUV
Chroma subsampling               : 4:2:0
Bit depth                        : 8 bits
Scan type                        : Progressive
Compression mode                 : Lossy
Bits/(Pixel*Frame)               : 0.323
Stream size                      : 1.27 GiB (93%)
Writing library                  : XviD 64

[color=yellow]AUDIO:[/color]
ID                               : 1
Format                           : MPEG Audio
Format version                   : Version 1
Format profile                   : Layer 3
Mode                             : Joint stereo
Mode extension                   : MS Stereo
Codec ID                         : 55
Codec ID/Hint                    : MP3
Duration                         : 1h 43mn
Bit rate mode                    : Constant
Bit rate                         : 128 Kbps
Channel(s)                       : 2 channels
Sampling rate                    : 44.1 KHz
Compression mode                 : Lossy
Stream size                      : 94.5 MiB (7%)
Alignment                        : Split accross interleaves
Interleave, duration             : 40 ms (1.00 video frame)


[IMG]http://i.imgur.com/cstio.jpg[/IMG]
[IMG]http://i.imgur.com/07aWC.jpg[/IMG]
[IMG]http://i.imgur.com/2VGKq.jpg[/IMG]
[IMG]http://i.imgur.com/F1dj2.jpg[/IMG]


[color=RED]WORK DONE:[/color].
Tweaked colours
Changed brightness and contrast
Changed chroma
Added sharpness

Audio is not the best line....
Used a hiss,pop,crackle filter
Changed the EQ
Sounds much better 
but still not perfect....
Take it or leave it, 
will do till something 
better comes around


[color=RED]GREEST 2 U ALL[/color]